<?xml version="1.0" standalone="no"?>
<!DOCTYPE svg PUBLIC "-//W3C//DTD SVG 20010904//EN"
 "http://www.w3.org/TR/2001/REC-SVG-20010904/DTD/svg10.dtd">
<svg version="1.0" xmlns="http://www.w3.org/2000/svg"
 width="256.000000pt" height="256.000000pt" viewBox="0 0 256.000000 256.000000"
 preserveAspectRatio="xMidYMid meet">

<g transform="translate(0.000000,256.000000) scale(0.100000,-0.100000)"
fill="#000000" stroke="none">
<path d="M620 2185 l0 -185 -185 0 -185 0 0 -220 0 -220 185 0 185 0 0 -185 0
-185 220 0 220 0 0 185 0 185 180 0 180 0 0 220 0 220 -180 0 -180 0 0 185 0
185 -220 0 -220 0 0 -185z"/>
<path d="M1770 1480 l0 -140 -140 0 -140 0 0 -170 0 -170 140 0 140 0 0 -140
0 -140 165 0 165 0 0 140 0 140 140 0 140 0 0 170 0 170 -140 0 -140 0 0 140
0 140 -165 0 -165 0 0 -140z"/>
<path d="M900 795 l0 -115 -115 0 -115 0 0 -140 0 -140 115 0 115 0 0 -115 0
-115 140 0 140 0 0 115 0 115 115 0 115 0 0 140 0 140 -115 0 -115 0 0 115 0
115 -140 0 -140 0 0 -115z"/>
</g>
</svg>
